<svg width="666" height="636" viewBox="0 0 666 636" fill="none" xmlns="http://www.w3.org/2000/svg">
<g filter="url(#filter0_d)">
<path d="M558.222 510.5H552.667V493H547.111V510.5H541.556V493H536V510.5C536 515.8 540.611 520.1 546.417 520.425V543H553.361V520.425C559.167 520.1 563.778 515.8 563.778 510.5V493H558.222V510.5ZM572.111 503V523H579.056V543H586V493C578.333 493 572.111 498.6 572.111 503Z" fill="black"/>
</g>
<g filter="url(#filter1_d)">
<path d="M615.545 177L607.023 197.833L613.5 213.667L609.864 218.667C606.023 209.292 599.636 193.667 599.636 193.667L586 227H636L615.545 177Z" fill="black"/>
</g>
<g filter="url(#filter2_d)">
<path d="M96.0556 108.639C100.056 116.5 106.5 122.917 114.361 126.944L120.472 120.833C121.222 120.083 122.333 119.833 123.306 120.167C126.417 121.194 129.778 121.75 133.222 121.75C134.75 121.75 136 123 136 124.528V134.222C136 135.75 134.75 137 133.222 137C107.139 137 86 115.861 86 89.7778C86 88.25 87.25 87 88.7778 87H98.5C100.028 87 101.278 88.25 101.278 89.7778C101.278 93.25 101.833 96.5833 102.861 99.6944C103.167 100.667 102.944 101.75 102.167 102.528L96.0556 108.639Z" fill="black"/>
</g>
<g filter="url(#filter3_d)">
<path d="M79.75 163V168.556H73.5V163H48.5V168.556H42.25V163H36V213H42.25V207.444H48.5V213H73.5V207.444H79.75V213H86V163H79.75ZM48.5 201.889H42.25V196.333H48.5V201.889ZM48.5 190.778H42.25V185.222H48.5V190.778ZM48.5 179.667H42.25V174.111H48.5V179.667ZM79.75 201.889H73.5V196.333H79.75V201.889ZM79.75 190.778H73.5V185.222H79.75V190.778ZM79.75 179.667H73.5V174.111H79.75V179.667Z" fill="black"/>
</g>
<g filter="url(#filter4_d)">
<path d="M44.5417 313.812H48C49.75 313.812 51.1875 312.479 51.3958 310.771L54.8333 276.438H44.4167V268H40.3125V276.438H29.9583L30.5833 281.312C34.1458 282.292 37.4792 284.062 39.4792 286.021C42.4792 288.979 44.5417 292.042 44.5417 297.042V313.812V313.812ZM9 311.729V309.667H40.3125V311.729C40.3125 312.875 39.375 313.812 38.2083 313.812H11.1042C9.9375 313.812 9 312.875 9 311.729V311.729ZM40.3125 297.146C40.3125 280.479 9 280.479 9 297.146H40.3125ZM9.04167 301.333H40.2917V305.5H9.04167V301.333Z" fill="black"/>
</g>
<g filter="url(#filter5_d)">
<path d="M58.7879 387.75L58.8182 387.722L47.5455 377.389L44.3333 380.333L50.7273 386.194C47.8788 387.194 45.8485 389.694 45.8485 392.667C45.8485 396.5 49.2424 399.611 53.4242 399.611C54.5152 399.611 55.5152 399.389 56.4545 399.028V419.056C56.4545 420.583 55.0909 421.833 53.4242 421.833C51.7576 421.833 50.3939 420.583 50.3939 419.056V406.556C50.3939 403.5 47.6667 401 44.3333 401H41.303V381.556C41.303 378.5 38.5758 376 35.2424 376H17.0606C13.7273 376 11 378.5 11 381.556V426H41.303V405.167H45.8485V419.056C45.8485 422.889 49.2424 426 53.4242 426C57.6061 426 61 422.889 61 419.056V392.667C61 390.75 60.1515 389 58.7879 387.75ZM53.4242 395.444C51.7576 395.444 50.3939 394.194 50.3939 392.667C50.3939 391.139 51.7576 389.889 53.4242 389.889C55.0909 389.889 56.4545 391.139 56.4545 392.667C56.4545 394.194 55.0909 395.444 53.4242 395.444ZM23.1212 417.667V405.167H17.0606L29.1818 384.333V398.222H35.2424L23.1212 417.667Z" fill="black"/>
</g>
<g filter="url(#filter6_d)">
<path d="M546.795 141.668L550 145.033L554.068 140.737L550.864 137.372L546.795 141.668ZM563.727 151H568.273V143.959H563.727V151ZM547.818 122.48H541V127.253H547.818V122.48ZM572.818 112.48V101H559.182V112.48C555.114 114.962 552.364 119.568 552.364 124.866C552.364 132.766 558.477 139.186 566 139.186C573.523 139.186 579.636 132.766 579.636 124.866C579.636 119.568 576.886 114.962 572.818 112.48ZM584.182 122.48V127.253H591V122.48H584.182ZM577.909 140.761L581.977 145.057L585.182 141.692L581.091 137.42L577.909 140.761Z" fill="black"/>
</g>
<g filter="url(#filter7_d)">
<path d="M657 306C657 299.65 653.281 293.975 647.5 290.325L644.5 276H619.5L616.531 290.325C610.719 293.975 607 299.625 607 306C607 312.375 610.719 318.025 616.531 321.675L619.5 336H644.5L647.5 321.675C653.281 318.025 657 312.35 657 306ZM613.25 306C613.25 297.725 621.656 291 632 291C642.344 291 650.75 297.725 650.75 306C650.75 314.275 642.344 321 632 321C621.656 321 613.25 314.275 613.25 306Z" fill="black"/>
</g>
<g filter="url(#filter8_d)">
<path d="M619.312 409.167C619.312 406.875 617.458 405 615.167 405H598.5L586 417.5V442.5C586 444.792 587.875 446.667 590.167 446.667H615.187C617.479 446.667 619.333 444.792 619.333 442.5L619.312 409.167V409.167ZM596.417 440.417H592.25V436.25H596.417V440.417ZM613.083 440.417H608.917V436.25H613.083V440.417ZM596.417 432.083H592.25V423.75H596.417V432.083ZM604.75 440.417H600.583V432.083H604.75V440.417ZM604.75 427.917H600.583V423.75H604.75V427.917ZM613.083 432.083H608.917V423.75H613.083V432.083Z" fill="black"/>
</g>
<g filter="url(#filter9_d)">
<path d="M128.857 468H93.1429C89.2143 468 86 470.25 86 473V513C86 515.75 89.2143 517.975 93.1429 517.975L128.857 518C132.786 518 136 515.75 136 513V473C136 470.25 132.786 468 128.857 468ZM111 473C114.929 473 118.143 475.25 118.143 478C118.143 480.75 114.929 483 111 483C107.036 483 103.857 480.75 103.857 478C103.857 475.25 107.036 473 111 473ZM111 513C101.143 513 93.1429 507.4 93.1429 500.5C93.1429 493.6 101.143 488 111 488C120.857 488 128.857 493.6 128.857 500.5C128.857 507.4 120.857 513 111 513ZM111 493C105.071 493 100.286 496.35 100.286 500.5C100.286 504.65 105.071 508 111 508C116.929 508 121.714 504.65 121.714 500.5C121.714 496.35 116.929 493 111 493Z" fill="black"/>
</g>
<g filter="url(#filter10_d)">
<rect x="180" width="326" height="628" rx="14" fill="#EAE8E8"/>
<rect x="182" y="2" width="322" height="624" rx="12" stroke="black" stroke-width="4"/>
</g>
<path d="M212.545 330.091H208V366.455C208 368.955 210.045 371 212.545 371H248.909V366.455H212.545V330.091ZM237.545 352.818H242.091V330.091H233V334.636H237.545V352.818ZM253.455 321H221.636C219.136 321 217.091 323.045 217.091 325.545V357.364C217.091 359.864 219.136 361.909 221.636 361.909H253.455C255.955 361.909 258 359.864 258 357.364V325.545C258 323.045 255.955 321 253.455 321ZM253.455 357.364H221.636V325.545H253.455V357.364Z" fill="black"/>
<path d="M316.545 330.091H312V366.455C312 368.955 314.045 371 316.545 371H352.909V366.455H316.545V330.091ZM357.455 321H325.636C323.136 321 321.091 323.045 321.091 325.545V357.364C321.091 359.864 323.136 361.909 325.636 361.909H357.455C359.955 361.909 362 359.864 362 357.364V325.545C362 323.045 359.955 321 357.455 321ZM357.455 357.364H325.636V325.545H357.455V357.364ZM348.364 348.273H339.273V343.727H343.818C346.318 343.727 348.364 341.705 348.364 339.182V334.636C348.364 332.114 346.318 330.091 343.818 330.091H334.727V334.636H343.818V339.182H339.273C336.773 339.182 334.727 341.205 334.727 343.727V352.818H348.364V348.273Z" fill="black"/>
<path d="M461.455 321H429.636C427.136 321 425.091 323.045 425.091 325.545V357.364C425.091 359.864 427.136 361.909 429.636 361.909H461.455C463.955 361.909 466 359.864 466 357.364V325.545C466 323.045 463.955 321 461.455 321ZM461.455 357.364H429.636V325.545H461.455V357.364ZM420.545 330.091H416V366.455C416 368.955 418.045 371 420.545 371H456.909V366.455H420.545V330.091ZM452.364 348.273V344.864C452.364 342.977 450.841 341.455 448.955 341.455C450.841 341.455 452.364 339.932 452.364 338.045V334.636C452.364 332.114 450.318 330.091 447.818 330.091H438.727V334.636H447.818V339.182H443.273V343.727H447.818V348.273H438.727V352.818H447.818C450.318 352.818 452.364 350.795 452.364 348.273Z" fill="black"/>
<path d="M212.545 399.091H208V435.455C208 437.955 210.045 440 212.545 440H248.909V435.455H212.545V399.091ZM239.818 421.818H244.364V399.091H239.818V408.182H235.273V399.091H230.727V412.727H239.818V421.818ZM253.455 390H221.636C219.136 390 217.091 392.045 217.091 394.545V426.364C217.091 428.864 219.136 430.909 221.636 430.909H253.455C255.955 430.909 258 428.864 258 426.364V394.545C258 392.045 255.955 390 253.455 390ZM253.455 426.364H221.636V394.545H253.455V426.364Z" fill="black"/>
<path d="M352.963 561.615C352.963 564.231 352.589 566.454 351.841 568.285C351.093 570.115 350.046 571.606 348.737 572.731C347.391 573.882 345.783 574.692 343.876 575.215C341.969 575.738 339.875 576 337.519 576C335.2 576 333.106 575.738 331.199 575.215C329.292 574.692 327.647 573.882 326.3 572.731C324.954 571.58 323.87 570.089 323.122 568.285C322.374 566.454 322 564.231 322 561.615V556.28C322 553.665 322.374 551.442 323.122 549.611C323.87 547.78 324.917 546.315 326.263 545.191C327.609 544.066 329.255 543.255 331.162 542.758C333.031 542.262 335.163 542 337.481 542C339.837 542 341.931 542.262 343.838 542.758C345.745 543.255 347.391 544.066 348.737 545.191C350.083 546.315 351.13 547.78 351.878 549.611C352.626 551.442 353 553.638 353 556.28V561.615H352.963ZM345.072 555.443C345.072 553.769 344.885 552.357 344.586 551.206C344.25 550.055 343.764 549.14 343.09 548.434C342.455 547.728 341.632 547.231 340.697 546.917C339.762 546.577 338.678 546.42 337.481 546.42C336.285 546.42 335.2 546.577 334.265 546.891C333.331 547.205 332.508 547.702 331.872 548.408C331.236 549.114 330.713 550.029 330.376 551.18C330.04 552.331 329.89 553.743 329.89 555.417V562.4C329.89 564.074 330.077 565.486 330.414 566.637C330.75 567.814 331.274 568.755 331.91 569.488C332.545 570.22 333.368 570.743 334.303 571.083C335.238 571.423 336.322 571.58 337.556 571.58C338.79 571.58 339.875 571.423 340.809 571.083C341.744 570.743 342.53 570.22 343.165 569.488C343.801 568.755 344.287 567.814 344.624 566.637C344.96 565.46 345.11 564.048 345.11 562.4V555.443H345.072Z" fill="black"/>
<path d="M420.545 399.091H416V435.455C416 437.955 418.045 440 420.545 440H456.909V435.455H420.545V399.091ZM461.455 390H429.636C427.136 390 425.091 392.045 425.091 394.545V426.364C425.091 428.864 427.136 430.909 429.636 430.909H461.455C463.955 430.909 466 428.864 466 426.364V394.545C466 392.045 463.955 390 461.455 390ZM461.455 426.364H429.636V394.545H461.455V426.364ZM443.273 421.818H447.818C450.318 421.818 452.364 419.795 452.364 417.273V412.727C452.364 410.205 450.318 408.182 447.818 408.182H443.273V403.636H452.364V399.091H443.273C440.773 399.091 438.727 401.114 438.727 403.636V417.273C438.727 419.795 440.773 421.818 443.273 421.818ZM443.273 412.727H447.818V417.273H443.273V412.727Z" fill="black"/>
<path d="M212.545 468.091H208V504.455C208 506.955 210.045 509 212.545 509H248.909V504.455H212.545V468.091ZM253.455 459H221.636C219.136 459 217.091 461.045 217.091 463.545V495.364C217.091 497.864 219.136 499.909 221.636 499.909H253.455C255.955 499.909 258 497.864 258 495.364V463.545C258 461.045 255.955 459 253.455 459ZM253.455 495.364H221.636V463.545H253.455V495.364ZM235.273 490.818L244.364 472.636V468.091H230.727V472.636H239.818L230.727 490.818H235.273Z" fill="black"/>
<path d="M316.545 468.091H312V504.455C312 506.955 314.045 509 316.545 509H352.909V504.455H316.545V468.091ZM357.455 459H325.636C323.136 459 321.091 461.045 321.091 463.545V495.364C321.091 497.864 323.136 499.909 325.636 499.909H357.455C359.955 499.909 362 497.864 362 495.364V463.545C362 461.045 359.955 459 357.455 459ZM357.455 495.364H325.636V463.545H357.455V495.364ZM339.273 490.818H343.818C346.318 490.818 348.364 488.795 348.364 486.273V482.864C348.364 480.977 346.841 479.455 344.955 479.455C346.841 479.455 348.364 477.932 348.364 476.045V472.636C348.364 470.114 346.318 468.091 343.818 468.091H339.273C336.773 468.091 334.727 470.114 334.727 472.636V476.045C334.727 477.932 336.25 479.455 338.136 479.455C336.25 479.455 334.727 480.977 334.727 482.864V486.273C334.727 488.795 336.773 490.818 339.273 490.818ZM339.273 472.636H343.818V477.182H339.273V472.636ZM339.273 481.727H343.818V486.273H339.273V481.727Z" fill="black"/>
<path d="M357.455 390H325.636C323.136 390 321.091 392.045 321.091 394.545V426.364C321.091 428.864 323.136 430.909 325.636 430.909H357.455C359.955 430.909 362 428.864 362 426.364V394.545C362 392.045 359.955 390 357.455 390ZM357.455 426.364H325.636V394.545H357.455V426.364ZM316.545 399.091H312V435.455C312 437.955 314.045 440 316.545 440H352.909V435.455H316.545V399.091ZM348.364 417.273V412.727C348.364 410.205 346.318 408.182 343.818 408.182H339.273V403.636H348.364V399.091H334.727V412.727H343.818V417.273H334.727V421.818H343.818C346.318 421.818 348.364 419.795 348.364 417.273Z" fill="black"/>
<path d="M420.545 468.091H416V504.455C416 506.955 418.045 509 420.545 509H456.909V504.455H420.545V468.091ZM461.455 459H429.636C427.136 459 425.091 461.045 425.091 463.545V495.364C425.091 497.864 427.136 499.909 429.636 499.909H461.455C463.955 499.909 466 497.864 466 495.364V463.545C466 461.045 463.955 459 461.455 459ZM461.455 495.364H429.636V463.545H461.455V495.364ZM447.818 468.091H443.273C440.773 468.091 438.727 470.114 438.727 472.636V477.182C438.727 479.705 440.773 481.727 443.273 481.727H447.818V486.273H438.727V490.818H447.818C450.318 490.818 452.364 488.795 452.364 486.273V472.636C452.364 470.114 450.318 468.091 447.818 468.091ZM447.818 477.182H443.273V472.636H447.818V477.182Z" fill="black"/>
<path d="M239 237H235V245H227V249H235V257H239V249H247V245H239V237ZM237 227C225.96 227 217 235.96 217 247C217 258.04 225.96 267 237 267C248.04 267 257 258.04 257 247C257 235.96 248.04 227 237 227ZM237 263C228.18 263 221 255.82 221 247C221 238.18 228.18 231 237 231C245.82 231 253 238.18 253 247C253 255.82 245.82 263 237 263Z" fill="black"/>
<path d="M312.306 242.006L309.294 239.374L304.03 245.398L298.006 240.134L295.374 243.146L301.398 248.41L296.134 254.434L299.146 257.066L304.41 251.042L310.434 256.306L313.066 253.294L307.042 248.03L312.306 242.006ZM317.381 233.16C309.067 225.896 296.425 226.747 289.16 235.06C281.896 243.373 282.747 256.016 291.06 263.281C299.373 270.545 312.016 269.694 319.281 261.381C326.545 253.067 325.694 240.425 317.381 233.16ZM293.692 260.269C287.051 254.465 286.369 244.334 292.172 237.692C297.976 231.051 308.107 230.369 314.748 236.172C321.39 241.976 322.072 252.107 316.269 258.749C310.465 265.39 300.334 266.072 293.692 260.269Z" fill="black"/>
<path d="M435.671 245V249H455.671V245H435.671ZM445.671 227C434.631 227 425.671 235.96 425.671 247C425.671 258.04 434.631 267 445.671 267C456.711 267 465.671 258.04 465.671 247C465.671 235.96 456.711 227 445.671 227ZM445.671 263C436.851 263 429.671 255.82 429.671 247C429.671 238.18 436.851 231 445.671 231C454.491 231 461.671 238.18 461.671 247C461.671 255.82 454.491 263 445.671 263Z" fill="black"/>
<path d="M388.564 244.927L386.414 241.554L369.548 252.303L371.698 255.676L388.564 244.927ZM389.805 265.481C399.115 259.547 401.855 247.175 395.921 237.866C389.988 228.556 377.616 225.816 368.306 231.75C358.997 237.683 356.257 250.055 362.19 259.365C368.124 268.674 380.496 271.414 389.805 265.481ZM370.456 235.123C377.894 230.382 387.808 232.578 392.548 240.016C397.289 247.453 395.093 257.367 387.655 262.108C380.218 266.848 370.304 264.652 365.563 257.215C360.823 249.777 363.019 239.863 370.456 235.123Z" fill="black"/>
<rect x="207.5" y="97.5" width="267" height="87" rx="5.5" fill="#C4C4C4" stroke="black" stroke-width="3"/>
<path d="M250.667 126H227.333C225.5 126 224 127.5 224 129.333V152.667C224 154.5 225.5 156 227.333 156H250.667C252.5 156 254 154.5 254 152.667V129.333C254 127.5 252.5 126 250.667 126ZM242.333 149.333H239V136H235.667V132.667H242.333V149.333Z" fill="black"/>
<path d="M290.667 126H267.333C265.5 126 264 127.5 264 129.333V152.667C264 154.5 265.5 156 267.333 156H290.667C292.5 156 294 154.5 294 152.667V129.333C294 127.5 292.5 126 290.667 126ZM284 149.333H280.667V142.667H274V132.667H277.333V139.333H280.667V132.667H284V149.333Z" fill="black"/>
<path d="M330.667 126H307.333C305.5 126 304 127.5 304 129.333V152.667C304 154.5 305.5 156 307.333 156H330.667C332.5 156 334 154.5 334 152.667V129.333C334 127.5 332.5 126 330.667 126ZM324 139.333C324 141.183 322.5 142.667 320.667 142.667H317.333V146H324V149.333H314V142.667C314 140.817 315.5 139.333 317.333 139.333H320.667V136H314V132.667H320.667C322.5 132.667 324 134.15 324 136V139.333Z" fill="black"/>
<path d="M370.667 126H347.333C345.5 126 344 127.5 344 129.333V152.667C344 154.5 345.5 156 347.333 156H370.667C372.5 156 374 154.5 374 152.667V129.333C374 127.5 372.5 126 370.667 126ZM364 138.5C364 139.883 362.883 141 361.5 141C362.883 141 364 142.117 364 143.5V146C364 147.85 362.5 149.333 360.667 149.333H354V146H360.667V142.667H357.333V139.333H360.667V136H354V132.667H360.667C362.5 132.667 364 134.15 364 136V138.5Z" fill="black"/>
<path d="M240.764 47.814C242.107 47.814 243.247 48.0927 244.184 48.65C245.147 49.182 245.869 49.8787 246.35 50.74C246.832 51.6013 247.072 52.5133 247.072 53.476C247.072 55.832 246.059 57.6813 244.032 59.024C242.031 60.3413 239.092 61 235.216 61H224.766V59.67L226.628 59.632V36.908L224.766 36.87V35.54L232.1 35.616L237.648 35.16C240.08 35.16 241.942 35.692 243.234 36.756C244.526 37.7947 245.172 39.1753 245.172 40.898C245.172 42.5193 244.628 43.9253 243.538 45.116C242.449 46.2813 240.853 47.2187 238.75 47.928L240.764 47.814ZM238.408 42.342C238.408 40.5433 237.94 39.188 237.002 38.276C236.09 37.3387 234.735 36.87 232.936 36.87V47.814C234.786 47.6873 236.154 47.1807 237.04 46.294C237.952 45.382 238.408 44.0647 238.408 42.342ZM232.936 59.67C235.52 59.67 237.395 59.2647 238.56 58.454C239.726 57.6433 240.308 56.3513 240.308 54.578C240.308 52.8047 239.776 51.462 238.712 50.55C237.674 49.638 236.128 49.182 234.076 49.182H232.936V59.67ZM267.584 58.454L262.302 61.456C261.491 61.0253 260.896 60.4427 260.516 59.708C260.136 58.948 259.946 57.9853 259.946 56.82L256.678 61.57C254.296 61.57 252.536 61 251.396 59.86C250.256 58.6947 249.686 56.9087 249.686 54.502V45.116L248.28 45.002V43.9H255.044V52.982C255.044 54.122 255.335 55.0087 255.918 55.642C256.526 56.25 257.324 56.5667 258.312 56.592L259.946 55.072V45.116L258.578 45.002V43.9H265.304V54.616C265.304 55.5533 265.354 56.25 265.456 56.706C265.582 57.162 265.772 57.5547 266.026 57.884L267.166 57.314L267.584 58.454ZM287.057 58.378L281.509 61.38C280.825 60.9747 280.318 60.4427 279.989 59.784C279.685 59.1 279.508 58.226 279.457 57.162L275.695 61.57C274.226 61.57 272.921 61.2407 271.781 60.582C270.666 59.898 269.792 58.9733 269.159 57.808C268.526 56.6173 268.209 55.2747 268.209 53.78C268.209 52.488 268.424 51.12 268.855 49.676C269.286 48.232 269.805 47.1047 270.413 46.294C270.894 45.61 271.768 44.9513 273.035 44.318C274.302 43.6593 275.366 43.33 276.227 43.33C276.987 43.33 278.026 43.4567 279.343 43.71L279.267 37.022L277.823 37.326L277.443 36.224L284.473 34.096L285.005 35.008L284.777 54.692C284.777 55.604 284.828 56.288 284.929 56.744C285.03 57.1747 285.208 57.5547 285.461 57.884L286.601 57.352L287.057 58.378ZM273.681 51.5C273.681 52.6653 273.871 53.6787 274.251 54.54C274.631 55.4013 275.125 56.06 275.733 56.516C276.366 56.972 277.038 57.2 277.747 57.2L279.457 55.49L279.381 47.814C277.734 47.0287 276.151 46.4967 274.631 46.218C273.998 47.662 273.681 49.4227 273.681 51.5ZM298.498 58.872C299.916 58.9733 301.12 59.2647 302.108 59.746C303.121 60.2273 303.906 60.8607 304.464 61.646C303.982 63.09 303.21 64.5087 302.146 65.902C301.107 67.2953 299.84 68.4353 298.346 69.322C296.876 70.234 295.293 70.69 293.596 70.69C291.949 70.69 290.619 70.272 289.606 69.436C288.618 68.6253 288.124 67.5867 288.124 66.32C288.124 65.256 288.39 64.0527 288.922 62.71C288.01 62.2793 287.25 61.5067 286.642 60.392L290.48 56.098C289.517 55.566 288.757 54.8567 288.2 53.97C287.668 53.058 287.402 52.0447 287.402 50.93C287.402 49.8913 287.617 48.8653 288.048 47.852C288.478 46.8387 289.023 45.9773 289.682 45.268C290.315 44.736 291.164 44.28 292.228 43.9C293.317 43.52 294.457 43.33 295.648 43.33C296.509 43.33 297.256 43.4187 297.89 43.596L301.044 38.238C301.55 38.1367 302.082 38.086 302.64 38.086C303.704 38.086 304.73 38.3013 305.718 38.732L303.058 43.672C302.247 43.3427 301.449 43.178 300.664 43.178C300.41 43.178 300.081 43.2033 299.676 43.254L299.106 44.014C300.246 44.5207 301.145 45.2553 301.804 46.218C302.462 47.1807 302.792 48.2953 302.792 49.562C302.792 50.55 302.564 51.538 302.108 52.526C301.677 53.4887 301.145 54.3627 300.512 55.148C299.878 55.7053 299.017 56.174 297.928 56.554C296.864 56.9087 295.749 57.086 294.584 57.086C293.469 57.086 292.443 56.9087 291.506 56.554L290.632 57.618C290.784 57.846 291.113 58.0487 291.62 58.226C292.126 58.4033 292.734 58.5047 293.444 58.53L298.498 58.872ZM297.776 50.968C297.776 49.3973 297.37 48.1687 296.56 47.282C295.749 46.3953 294.609 45.8507 293.14 45.648C292.658 47.0413 292.418 48.3333 292.418 49.524C292.418 51.044 292.823 52.2473 293.634 53.134C294.444 54.0207 295.597 54.5653 297.092 54.768C297.548 53.5773 297.776 52.3107 297.776 50.968ZM295.686 66.7C296.446 66.7 297.193 66.6113 297.928 66.434C298.662 66.282 299.283 66.092 299.79 65.864C300.296 65.636 300.6 65.4333 300.702 65.256C300.55 64.9013 300.094 64.5467 299.334 64.192C298.599 63.8627 297.56 63.66 296.218 63.584L292 63.356C291.518 63.3307 290.936 63.2673 290.252 63.166C290.378 64.1793 290.923 65.0153 291.886 65.674C292.874 66.358 294.14 66.7 295.686 66.7ZM313.911 43.33C316.14 43.33 317.888 44.1407 319.155 45.762C320.447 47.358 321.08 49.524 321.055 52.26L310.567 52.602C310.744 54.0967 311.264 55.2367 312.125 56.022C312.986 56.8073 314.126 57.2 315.545 57.2C317.521 57.2 319.13 56.6553 320.371 55.566L321.055 56.174C320.168 57.8713 318.965 59.2013 317.445 60.164C315.95 61.1013 314.354 61.57 312.657 61.57C310.352 61.57 308.515 60.81 307.147 59.29C305.804 57.7447 305.133 55.6673 305.133 53.058C305.133 51.5127 305.437 49.98 306.045 48.46C306.678 46.94 307.476 45.6733 308.439 44.66C309.098 44.28 309.946 43.9633 310.985 43.71C312.024 43.4567 312.999 43.33 313.911 43.33ZM315.431 51.006C315.406 49.2327 315.152 47.8267 314.671 46.788C314.19 45.7493 313.506 45.1287 312.619 44.926C311.986 45.5847 311.466 46.5093 311.061 47.7C310.681 48.8653 310.491 50.0687 310.491 51.31V51.424L315.431 51.006ZM333.914 57.998L329.278 61.342C327.404 61.342 326.036 60.886 325.174 59.974C324.338 59.0367 323.92 57.542 323.92 55.49V45.382H321.374V44.166C322.438 43.5833 323.591 42.76 324.832 41.696C326.099 40.6067 327.252 39.4667 328.29 38.276L329.544 38.656L329.354 43.9H333.8V45.496L329.278 45.42V54.16C329.278 55.376 329.506 56.2627 329.962 56.82C330.444 57.3773 331.077 57.656 331.862 57.656L333.268 56.858L333.914 57.998ZM363.395 42.988C363.395 45.6733 362.243 47.8013 359.937 49.372C357.657 50.9173 354.313 51.7407 349.905 51.842V59.632L354.047 59.67V61H341.735V59.67L343.597 59.632V36.908L341.735 36.87V35.54L349.069 35.616L354.731 35.35C356.555 35.35 358.113 35.692 359.405 36.376C360.723 37.06 361.711 37.9847 362.369 39.15C363.053 40.3153 363.395 41.5947 363.395 42.988ZM356.631 44.09C356.631 42.7473 356.34 41.5313 355.757 40.442C355.175 39.3273 354.364 38.4533 353.325 37.82C352.312 37.1867 351.172 36.87 349.905 36.87V50.36C352.008 50.2333 353.655 49.6253 354.845 48.536C356.036 47.4213 356.631 45.9393 356.631 44.09ZM364.693 59.898L366.099 59.784L365.909 37.022L364.465 37.326L364.085 36.224L371.115 34.096L371.647 35.008L371.457 59.784L372.863 59.898V61H364.693V59.898ZM389.51 59.024L383.924 61.646C383.24 61.1647 382.771 60.506 382.518 59.67C381.606 60.2273 380.681 60.6833 379.744 61.038C378.832 61.3927 378.034 61.57 377.35 61.57C376.311 61.57 375.463 61.2027 374.804 60.468C374.145 59.7333 373.816 58.796 373.816 57.656C373.816 57.1493 373.867 56.6047 373.968 56.022C374.095 55.414 374.247 54.9327 374.424 54.578L382.48 53.286L382.556 52.184C382.607 51.044 382.366 50.1573 381.834 49.524C381.302 48.8653 380.441 48.536 379.25 48.536C378.718 48.536 378.161 48.5993 377.578 48.726C376.995 48.8273 376.501 48.9667 376.096 49.144L375.488 50.436L374.462 50.056L376.21 44.584C378.161 43.748 380.01 43.33 381.758 43.33C383.557 43.33 385.026 43.8113 386.166 44.774C387.306 45.7113 387.876 47.1933 387.876 49.22L387.838 49.98L387.458 55.11L387.382 56.478C387.382 56.934 387.42 57.3013 387.496 57.58C387.572 57.8333 387.699 58.0993 387.876 58.378L389.054 57.922L389.51 59.024ZM380.884 58.834C381.289 58.834 381.758 58.682 382.29 58.378L382.252 57.58L382.29 56.744L382.404 54.578L379.478 55.262C379.377 55.5913 379.326 56.0347 379.326 56.592C379.326 57.352 379.478 57.922 379.782 58.302C380.086 58.6567 380.453 58.834 380.884 58.834ZM408.808 59.898V61H400.676V59.898L402.082 59.784V51.766C402.082 50.6513 401.766 49.79 401.132 49.182C400.524 48.574 399.676 48.2573 398.586 48.232L397.37 49.486L397.218 59.784L398.624 59.898V61H390.454V59.898L391.86 59.784L391.746 46.18L390.302 46.522L389.922 45.382L395.926 43.52L397.256 47.776L400.41 43.254C402.817 43.254 404.59 43.824 405.73 44.964C406.87 46.104 407.44 47.8647 407.44 50.246V59.784L408.808 59.898ZM428.625 59.898V61H420.493V59.898L421.899 59.784V51.766C421.899 50.6513 421.582 49.79 420.949 49.182C420.341 48.574 419.492 48.2573 418.403 48.232L417.187 49.486L417.035 59.784L418.441 59.898V61H410.271V59.898L411.677 59.784L411.563 46.18L410.119 46.522L409.739 45.382L415.743 43.52L417.073 47.776L420.227 43.254C422.634 43.254 424.407 43.824 425.547 44.964C426.687 46.104 427.257 47.8647 427.257 50.246V59.784L428.625 59.898ZM438.561 43.33C440.791 43.33 442.539 44.1407 443.805 45.762C445.097 47.358 445.731 49.524 445.705 52.26L435.217 52.602C435.395 54.0967 435.914 55.2367 436.775 56.022C437.637 56.8073 438.777 57.2 440.195 57.2C442.171 57.2 443.78 56.6553 445.021 55.566L445.705 56.174C444.819 57.8713 443.615 59.2013 442.095 60.164C440.601 61.1013 439.005 61.57 437.307 61.57C435.002 61.57 433.165 60.81 431.797 59.29C430.455 57.7447 429.783 55.6673 429.783 53.058C429.783 51.5127 430.087 49.98 430.695 48.46C431.329 46.94 432.127 45.6733 433.089 44.66C433.748 44.28 434.597 43.9633 435.635 43.71C436.674 43.4567 437.649 43.33 438.561 43.33ZM440.081 51.006C440.056 49.2327 439.803 47.8267 439.321 46.788C438.84 45.7493 438.156 45.1287 437.269 44.926C436.636 45.5847 436.117 46.5093 435.711 47.7C435.331 48.8653 435.141 50.0687 435.141 51.31V51.424L440.081 51.006ZM453.777 49.106L453.625 59.784L457.007 59.898V61H446.861V59.898L448.267 59.784L448.153 46.18L446.709 46.522L446.329 45.382L452.333 43.52L453.625 47.586C454.461 45.8887 455.373 44.5713 456.361 43.634C456.918 43.4313 457.589 43.33 458.375 43.33C459.439 43.33 460.439 43.52 461.377 43.9L460.161 48.84C459.426 48.688 458.489 48.5487 457.349 48.422C456.209 48.2953 455.271 48.2067 454.537 48.156L453.777 49.106Z" fill="black"/>
<defs>
<filter id="filter0_d" x="527" y="491" width="68" height="68" filterUnits="userSpaceOnUse" color-interpolation-filters="sRGB">
<feFlood flood-opacity="0" result="BackgroundImageFix"/>
<feColorMatrix in="SourceAlpha" type="matrix" values="0 0 0 0 0 0 0 0 0 0 0 0 0 0 0 0 0 0 127 0"/>
<feOffset dy="7"/>
<feGaussianBlur stdDeviation="4.5"/>
<feColorMatrix type="matrix" values="0 0 0 0 0 0 0 0 0 0 0 0 0 0 0 0 0 0 0.62 0"/>
<feBlend mode="normal" in2="BackgroundImageFix" result="effect1_dropShadow"/>
<feBlend mode="normal" in="SourceGraphic" in2="effect1_dropShadow" result="shape"/>
</filter>
<filter id="filter1_d" x="577" y="175" width="68" height="68" filterUnits="userSpaceOnUse" color-interpolation-filters="sRGB">
<feFlood flood-opacity="0" result="BackgroundImageFix"/>
<feColorMatrix in="SourceAlpha" type="matrix" values="0 0 0 0 0 0 0 0 0 0 0 0 0 0 0 0 0 0 127 0"/>
<feOffset dy="7"/>
<feGaussianBlur stdDeviation="4.5"/>
<feColorMatrix type="matrix" values="0 0 0 0 0 0 0 0 0 0 0 0 0 0 0 0 0 0 0.62 0"/>
<feBlend mode="normal" in2="BackgroundImageFix" result="effect1_dropShadow"/>
<feBlend mode="normal" in="SourceGraphic" in2="effect1_dropShadow" result="shape"/>
</filter>
<filter id="filter2_d" x="77" y="85" width="68" height="68" filterUnits="userSpaceOnUse" color-interpolation-filters="sRGB">
<feFlood flood-opacity="0" result="BackgroundImageFix"/>
<feColorMatrix in="SourceAlpha" type="matrix" values="0 0 0 0 0 0 0 0 0 0 0 0 0 0 0 0 0 0 127 0"/>
<feOffset dy="7"/>
<feGaussianBlur stdDeviation="4.5"/>
<feColorMatrix type="matrix" values="0 0 0 0 0 0 0 0 0 0 0 0 0 0 0 0 0 0 0.62 0"/>
<feBlend mode="normal" in2="BackgroundImageFix" result="effect1_dropShadow"/>
<feBlend mode="normal" in="SourceGraphic" in2="effect1_dropShadow" result="shape"/>
</filter>
<filter id="filter3_d" x="27" y="161" width="68" height="68" filterUnits="userSpaceOnUse" color-interpolation-filters="sRGB">
<feFlood flood-opacity="0" result="BackgroundImageFix"/>
<feColorMatrix in="SourceAlpha" type="matrix" values="0 0 0 0 0 0 0 0 0 0 0 0 0 0 0 0 0 0 127 0"/>
<feOffset dy="7"/>
<feGaussianBlur stdDeviation="4.5"/>
<feColorMatrix type="matrix" values="0 0 0 0 0 0 0 0 0 0 0 0 0 0 0 0 0 0 0.62 0"/>
<feBlend mode="normal" in2="BackgroundImageFix" result="effect1_dropShadow"/>
<feBlend mode="normal" in="SourceGraphic" in2="effect1_dropShadow" result="shape"/>
</filter>
<filter id="filter4_d" x="0" y="266" width="63.8333" height="63.8125" filterUnits="userSpaceOnUse" color-interpolation-filters="sRGB">
<feFlood flood-opacity="0" result="BackgroundImageFix"/>
<feColorMatrix in="SourceAlpha" type="matrix" values="0 0 0 0 0 0 0 0 0 0 0 0 0 0 0 0 0 0 127 0"/>
<feOffset dy="7"/>
<feGaussianBlur stdDeviation="4.5"/>
<feColorMatrix type="matrix" values="0 0 0 0 0 0 0 0 0 0 0 0 0 0 0 0 0 0 0.62 0"/>
<feBlend mode="normal" in2="BackgroundImageFix" result="effect1_dropShadow"/>
<feBlend mode="normal" in="SourceGraphic" in2="effect1_dropShadow" result="shape"/>
</filter>
<filter id="filter5_d" x="2" y="374" width="68" height="68" filterUnits="userSpaceOnUse" color-interpolation-filters="sRGB">
<feFlood flood-opacity="0" result="BackgroundImageFix"/>
<feColorMatrix in="SourceAlpha" type="matrix" values="0 0 0 0 0 0 0 0 0 0 0 0 0 0 0 0 0 0 127 0"/>
<feOffset dy="7"/>
<feGaussianBlur stdDeviation="4.5"/>
<feColorMatrix type="matrix" values="0 0 0 0 0 0 0 0 0 0 0 0 0 0 0 0 0 0 0.62 0"/>
<feBlend mode="normal" in2="BackgroundImageFix" result="effect1_dropShadow"/>
<feBlend mode="normal" in="SourceGraphic" in2="effect1_dropShadow" result="shape"/>
</filter>
<filter id="filter6_d" x="532" y="99" width="68" height="68" filterUnits="userSpaceOnUse" color-interpolation-filters="sRGB">
<feFlood flood-opacity="0" result="BackgroundImageFix"/>
<feColorMatrix in="SourceAlpha" type="matrix" values="0 0 0 0 0 0 0 0 0 0 0 0 0 0 0 0 0 0 127 0"/>
<feOffset dy="7"/>
<feGaussianBlur stdDeviation="4.5"/>
<feColorMatrix type="matrix" values="0 0 0 0 0 0 0 0 0 0 0 0 0 0 0 0 0 0 0.62 0"/>
<feBlend mode="normal" in2="BackgroundImageFix" result="effect1_dropShadow"/>
<feBlend mode="normal" in="SourceGraphic" in2="effect1_dropShadow" result="shape"/>
</filter>
<filter id="filter7_d" x="598" y="274" width="68" height="78" filterUnits="userSpaceOnUse" color-interpolation-filters="sRGB">
<feFlood flood-opacity="0" result="BackgroundImageFix"/>
<feColorMatrix in="SourceAlpha" type="matrix" values="0 0 0 0 0 0 0 0 0 0 0 0 0 0 0 0 0 0 127 0"/>
<feOffset dy="7"/>
<feGaussianBlur stdDeviation="4.5"/>
<feColorMatrix type="matrix" values="0 0 0 0 0 0 0 0 0 0 0 0 0 0 0 0 0 0 0.62 0"/>
<feBlend mode="normal" in2="BackgroundImageFix" result="effect1_dropShadow"/>
<feBlend mode="normal" in="SourceGraphic" in2="effect1_dropShadow" result="shape"/>
</filter>
<filter id="filter8_d" x="577" y="403" width="51.3333" height="59.6667" filterUnits="userSpaceOnUse" color-interpolation-filters="sRGB">
<feFlood flood-opacity="0" result="BackgroundImageFix"/>
<feColorMatrix in="SourceAlpha" type="matrix" values="0 0 0 0 0 0 0 0 0 0 0 0 0 0 0 0 0 0 127 0"/>
<feOffset dy="7"/>
<feGaussianBlur stdDeviation="4.5"/>
<feColorMatrix type="matrix" values="0 0 0 0 0 0 0 0 0 0 0 0 0 0 0 0 0 0 0.62 0"/>
<feBlend mode="normal" in2="BackgroundImageFix" result="effect1_dropShadow"/>
<feBlend mode="normal" in="SourceGraphic" in2="effect1_dropShadow" result="shape"/>
</filter>
<filter id="filter9_d" x="77" y="466" width="68" height="68" filterUnits="userSpaceOnUse" color-interpolation-filters="sRGB">
<feFlood flood-opacity="0" result="BackgroundImageFix"/>
<feColorMatrix in="SourceAlpha" type="matrix" values="0 0 0 0 0 0 0 0 0 0 0 0 0 0 0 0 0 0 127 0"/>
<feOffset dy="7"/>
<feGaussianBlur stdDeviation="4.5"/>
<feColorMatrix type="matrix" values="0 0 0 0 0 0 0 0 0 0 0 0 0 0 0 0 0 0 0.62 0"/>
<feBlend mode="normal" in2="BackgroundImageFix" result="effect1_dropShadow"/>
<feBlend mode="normal" in="SourceGraphic" in2="effect1_dropShadow" result="shape"/>
</filter>
<filter id="filter10_d" x="176" y="0" width="334" height="636" filterUnits="userSpaceOnUse" color-interpolation-filters="sRGB">
<feFlood flood-opacity="0" result="BackgroundImageFix"/>
<feColorMatrix in="SourceAlpha" type="matrix" values="0 0 0 0 0 0 0 0 0 0 0 0 0 0 0 0 0 0 127 0"/>
<feOffset dy="4"/>
<feGaussianBlur stdDeviation="2"/>
<feColorMatrix type="matrix" values="0 0 0 0 0 0 0 0 0 0 0 0 0 0 0 0 0 0 0.25 0"/>
<feBlend mode="normal" in2="BackgroundImageFix" result="effect1_dropShadow"/>
<feBlend mode="normal" in="SourceGraphic" in2="effect1_dropShadow" result="shape"/>
</filter>
</defs>
</svg>
